HIERARCHY
ROOT RootJoint
{
    OFFSET   0.000000   0.000000   0.000000
    CHANNELS 6 Xposition Yposition Zposition Xrotation Yrotation Zrotation
    JOINT pelvis_lowerback
    {
        OFFSET   0.000000   0.093605   0.000000
        CHANNELS 3 Xrotation Yrotation Zrotation
        JOINT lowerback_torso
        {
            OFFSET   0.000000   0.100000   0.000000
            CHANNELS 3 Xrotation Yrotation Zrotation
            JOINT torso_head
            {
                OFFSET   0.000000   0.282350   0.000000
                CHANNELS 3 Xrotation Yrotation Zrotation
                End Site
                {
                    OFFSET   0.000000   0.192650   0.000000
                }
            }
            JOINT rTorso_Clavicle
            {
                OFFSET  -0.001000   0.157500   0.000000
                CHANNELS 3 Xrotation Yrotation Zrotation
                JOINT rShoulder
                {
                    OFFSET  -0.117647   0.000000   0.000000
                    CHANNELS 3 Xrotation Yrotation Zrotation
                    JOINT rElbow
                    {
                        OFFSET  -0.245000   0.000000   0.000000
                        CHANNELS 3 Xrotation Yrotation Zrotation
                        JOINT rWrist
                        {
                            OFFSET  -0.240000   0.000000   0.000000
                            CHANNELS 3 Xrotation Yrotation Zrotation
                            End Site
                            {
                                OFFSET  -0.116353  -0.002500   0.000000
                            }
                        }
                    }
                }
            }
            JOINT lTorso_Clavicle
            {
                OFFSET   0.001000   0.157500   0.000000
                CHANNELS 3 Xrotation Yrotation Zrotation
                JOINT lShoulder
                {
                    OFFSET   0.117647   0.000000   0.000000
                    CHANNELS 3 Xrotation Yrotation Zrotation
                    JOINT lElbow
                    {
                        OFFSET   0.245000   0.000000   0.000000
                        CHANNELS 3 Xrotation Yrotation Zrotation
                        JOINT lWrist
                        {
                            OFFSET   0.240000   0.000000   0.000000
                            CHANNELS 3 Xrotation Yrotation Zrotation
                            End Site
                            {
                                OFFSET   0.116353  -0.002500   0.000000
                            }
                        }
                    }
                }
            }
        }
    }
    JOINT rHip
    {
        OFFSET  -0.100000  -0.051395   0.000000
        CHANNELS 3 Xrotation Yrotation Zrotation
        JOINT rKnee
        {
            OFFSET   0.000000  -0.410000   0.000000
            CHANNELS 3 Xrotation Yrotation Zrotation
            JOINT rAnkle
            {
                OFFSET   0.000000  -0.390000   0.000000
                CHANNELS 3 Xrotation Yrotation Zrotation
                JOINT rToeJoint
                {
                    OFFSET   0.000000  -0.050000   0.130000
                    CHANNELS 3 Xrotation Yrotation Zrotation
                    End Site
                    {
                        OFFSET  -0.010000   0.002000   0.060000
                    }
                }
            }
        }
    }
    JOINT lHip
    {
        OFFSET   0.100000  -0.051395   0.000000
        CHANNELS 3 Xrotation Yrotation Zrotation
        JOINT lKnee
        {
            OFFSET   0.000000  -0.410000   0.000000
            CHANNELS 3 Xrotation Yrotation Zrotation
            JOINT lAnkle
            {
                OFFSET   0.000000  -0.390000   0.000000
                CHANNELS 3 Xrotation Yrotation Zrotation
                JOINT lToeJoint
                {
                    OFFSET   0.000000  -0.050000   0.130000
                    CHANNELS 3 Xrotation Yrotation Zrotation
                    End Site
                    {
                        OFFSET   0.010000   0.002000   0.060000
                    }
                }
            }
        }
    }
}
MOTION
Frames: 14
Frame Time:   0.008333
 -2.376719   0.925631   3.975860   0.000000   0.000000   0.000000   0.000000   0.000000   0.000000   0.000000   0.000000   0.000000   0.000000   0.000000   0.000000   0.000000   0.000000   0.000000   0.000000   0.000000   0.000000   0.000000   0.000000   0.000000   0.000000   0.000000   0.000000   0.000000   0.000000   0.000000   0.000000   0.000000   0.000000   0.000000   0.000000   0.000000   0.000000   0.000000   0.000000   0.000000   0.000000   0.000000   0.000000   0.000000   0.000000   0.000000   0.000000   0.000000   0.000000   0.000000   0.000000   0.000000   0.000000   0.000000   0.000000   0.000000   0.000000   0.000000   0.000000   0.000000   0.000000   0.000000   0.000000
 -2.376839   0.926140   3.975944   0.754621   0.111917  -0.074502  -0.884658   0.004315   0.009039  -0.020386  -0.114726   0.057859   0.005788   0.030095   0.090742   0.046030  -0.590439   0.388435  -1.402070  -0.560360   1.935587   0.058946   2.960234   0.037918  -0.055215  -0.511579  -3.648066  -0.053170   0.551649  -0.447182  -1.370157   0.583945  -1.861955   0.060016  -3.019283  -0.040388  -0.050586   0.505604   3.712511  -0.955741  -0.102990  -0.084915   0.469967   0.000646   0.000038  -0.669847  -0.387068  -0.052711  -0.120400  -0.000220   0.000395  -1.088414  -0.257711   0.297292   0.915294  -0.001809  -0.001134  -1.014399   0.094788   0.060472   0.177861  -0.000441  -0.000078
 -2.377039   0.926993   3.976380   1.484880   0.210061  -0.158478  -1.780921   0.017403   0.007063  -0.106297  -0.226374   0.110074   0.027526   0.059216   0.188239   0.087061  -1.252495   1.479375  -2.773084  -1.189050   4.435858   0.130551   5.790940   0.069656  -0.114467  -0.261938  -6.641384  -0.105712   1.174801  -1.622401  -2.651775   1.196166  -4.174108   0.131847  -5.907420  -0.072311  -0.108103   0.241526   6.731077  -1.851030  -0.196616  -0.311328   0.930198   0.001744   0.000040  -1.301211  -0.753928  -0.108092  -0.284404  -0.000690   0.000825  -2.074355  -0.514949   0.772404   1.843918  -0.004716  -0.002041  -1.964996   0.185558   0.120366   0.291336  -0.000805  -0.000124
 -2.377302   0.927777   3.977039   2.171483   0.300825  -0.238558  -2.669440   0.028317  -0.010250  -0.225447  -0.332976   0.142560   0.046151   0.086533   0.281489   0.146289  -1.923451   2.997375  -4.090722  -1.914921   7.299945   0.196356   8.424493   0.094489  -0.165329   0.065950  -8.769401  -0.133305   1.809317  -3.242812  -3.821124   1.855755  -6.707783   0.196713  -8.595118  -0.095364  -0.159072  -0.100061   8.849655  -2.675793  -0.277505  -0.666649   1.368374   0.003033   0.000041  -1.891427  -1.097765  -0.164743  -0.444762  -0.001228   0.001111  -2.944166  -0.766481   1.376637   2.736848  -0.008002  -0.002580  -2.851914   0.271748   0.178968   0.389571  -0.001150  -0.000154
 -2.377615   0.928189   3.977806   2.813099   0.387172  -0.313664  -3.537624   0.034147  -0.040925  -0.364356  -0.437341   0.158001   0.059765   0.112159   0.367266   0.232206  -2.590301   4.765973  -5.327595  -2.734071  10.364123   0.248769  10.865193   0.112871  -0.232185   0.304534 -10.226386  -0.128200   2.440273  -5.116787  -4.873105   2.558743  -9.325367   0.247495 -11.087525  -0.110900  -0.226018  -0.355085  10.287688  -3.441132  -0.345408  -1.127543   1.783325   0.004335   0.000044  -2.442994  -1.419712  -0.222033  -0.597716  -0.001759   0.001270  -3.714370  -1.012355   2.079904   3.587958  -0.011238  -0.002794  -3.679765   0.353240   0.236010   0.474947  -0.001439  -0.000171
 -2.377936   0.927996   3.978589   3.409334   0.467267  -0.386264  -4.375445   0.033731  -0.076354  -0.511907  -0.541544   0.171118   0.068768   0.136300   0.442276   0.349832  -3.244750   6.696619  -6.422406  -3.601657  13.412060   0.284754  13.123645   0.124453  -0.328634   0.415018 -11.169598  -0.087761   3.057263  -7.119925  -5.809201   3.294212 -11.940179   0.282445 -13.397199  -0.120223  -0.317238  -0.498468  11.255219  -4.156341  -0.400443  -1.672659   2.174428   0.005542   0.000039  -2.958428  -1.720878  -0.279344  -0.742149  -0.002241   0.001335  -4.399105  -1.252460   2.857299   4.396098  -0.014143  -0.002778  -4.452568   0.430047   0.291359   0.549371  -0.001653  -0.000178
 -2.378246   0.927033   3.979322   3.961101   0.539483  -0.456108  -5.175263   0.028004  -0.111524  -0.659658  -0.644781   0.184427   0.073618   0.158857   0.509938   0.497848  -3.872984   8.685969  -7.383059  -4.495591  16.374918   0.305454  15.216075   0.130606  -0.450097   0.418329 -11.786399  -0.014113   3.648316  -9.162886  -6.636045   4.045883 -14.493557   0.302672 -15.539578  -0.124530  -0.430661  -0.546845  11.915377  -4.828709  -0.443170  -2.284059   2.541156   0.006578   0.000019  -3.440107  -2.002477  -0.336231  -0.877473  -0.002646   0.001333  -5.010413  -1.486676   3.686791   5.161196  -0.016570  -0.002613  -5.173949   0.502151   0.344832   0.615041  -0.001796  -0.000182
 -2.378425   0.924567   3.979485   4.282216   0.556927  -0.525585  -5.539784   0.086279  -0.057646  -0.821846  -0.669240   0.134016   0.062236   0.049418   0.527658   0.650450  -4.582797  10.103854  -8.600012  -5.486465  18.946688   0.328010  18.236243   0.154702  -0.771816  -0.358493 -11.472495   0.028481   4.369937 -10.484188  -8.355688   4.794788 -17.116288   0.326205 -18.629714  -0.165902  -0.724495   0.170426  11.839293  -5.399666  -0.678876  -2.847248   3.099775   0.008253  -0.001270  -3.668604  -2.243593  -0.231959  -0.769758  -0.001613   0.000653  -5.254372  -1.497810   4.461266   5.267913  -0.013916  -0.001996  -5.657955   0.623866   0.280889   0.708693  -0.001960  -0.000027
 -2.378574   0.920829   3.979144   4.561688   0.630488  -0.588173  -5.807946   0.125226  -0.002676  -0.923996  -0.703519   0.068360   0.068907  -0.055518   0.545708   0.774783  -5.161079  11.175351  -9.733656  -6.367453  21.160126   0.322347  21.117725   0.168493  -1.025981  -0.810835 -11.333725   0.042582   4.941617 -11.516787  -9.966812   5.459037 -19.422707   0.321679 -21.584561  -0.193364  -0.965233   0.528285  11.877866  -5.963527  -0.909602  -3.368781   3.643558   0.009243  -0.002027  -3.875355  -2.471554  -0.135963  -0.635309  -0.000724   0.000079  -5.521484  -1.506725   5.168915   5.281087  -0.011207  -0.001579  -6.113744   0.738702   0.221917   0.794028  -0.002008   0.000125
 -2.378709   0.919801   3.978924   4.761107   0.874069  -0.186294  -6.039034   0.118244  -0.347754  -1.000386  -0.771719  -0.169307   0.096018  -0.153843   0.554394   0.886036  -5.653102  12.280711 -10.769257  -7.200066  23.212884   0.307529  23.819271   0.175613  -1.230180  -1.089815 -11.428685   0.037075   5.397254 -12.518786 -11.467238   6.079293 -21.512575   0.307136 -24.354530  -0.211166  -1.154100   0.704539  12.131281  -6.402762  -1.123958  -4.254138   4.140951   0.009329  -0.001961  -4.058671  -2.688723  -0.050040  -0.434136   0.000075  -0.000361  -6.034370  -1.333090   4.792937   5.678714  -0.009046   0.000219  -5.962445   0.997464  -0.157861   0.933627  -0.001215   0.000904
 -2.379542   0.919687   3.978803   4.927825   0.896005  -0.194712  -6.252372   0.190387  -0.341039  -1.069677  -0.781083  -0.287266   0.118656  -0.242689   0.561931   0.971177  -6.041126  13.164040 -11.728801  -7.954285  25.050811   0.282854  26.359350   0.178228  -1.409914  -1.269086 -11.562193   0.036540   5.790641 -13.400244 -12.844584   6.688188 -23.446075   0.283404 -26.955601  -0.220441  -1.322811   0.796498  12.399613  -6.904657  -1.405581  -4.253770   4.716221   0.007311  -0.003071  -4.068878  -2.966268   0.187189  -0.269554  -0.000266  -0.001099  -6.323787  -1.283263   4.869748   5.898041  -0.007365   0.000381  -6.189099   1.117748  -0.268196   1.059029  -0.000927   0.000948
 -2.380488   0.919627   3.978685   5.099630   0.948156  -0.199291  -6.454264   0.235245  -0.358247  -1.144950  -0.798756  -0.399228   0.134671  -0.326820   0.575933   1.034286  -6.363235  13.854859 -12.624339  -8.645415  26.685222   0.251929  28.750622   0.177213  -1.563901  -1.347798 -11.790759   0.022723   6.114635 -14.108338 -14.128006   7.259868 -25.180727   0.253214 -29.400110  -0.223514  -1.470006   0.812885  12.725745  -7.358455  -1.600802  -4.231248   5.226824   0.005606  -0.003230  -4.176429  -3.151881   0.279746  -0.137582  -0.000355  -0.001283  -6.574004  -1.277747   4.941168   6.035756  -0.005976   0.000408  -6.459159   1.210591  -0.336266   1.144802  -0.000742   0.000878
 -2.381526   0.919578   3.978560   5.278794   1.023309  -0.199927  -6.641521   0.267358  -0.386148  -1.225873  -0.823714  -0.516236   0.147188  -0.405704   0.589133   1.075853  -6.635087  14.397501 -13.465812  -9.280636  28.135453   0.218773  30.997795   0.173295  -1.693438  -1.339584 -12.135727  -0.009296   6.380653 -14.680683 -15.331619   7.792086 -26.733623   0.220500 -31.697008  -0.222016  -1.592860   0.750267  13.141905  -7.785940  -1.774223  -4.205742   5.684057   0.004236  -0.003072  -4.290838  -3.320663   0.359207  -0.024709  -0.000405  -0.001308  -6.814682  -1.277894   5.011929   6.131673  -0.004842   0.000410  -6.727325   1.295802  -0.396017   1.217399  -0.000603   0.000808
 -2.382557   0.919503   3.978090   5.310337   1.075451  -0.236029  -6.512484   0.235486  -0.426676  -1.338572  -0.810862  -0.577390   0.128082  -0.519702   0.597509   1.058258  -6.829560  14.745024 -14.574413  -9.805996  29.060881   0.176338  34.044249   0.186306  -1.938785  -2.058860 -12.025683  -0.039070   6.621288 -14.972333 -16.893525   8.274219 -27.806530   0.175006 -34.877814  -0.244847  -1.844340   1.523339  12.986081  -7.953883  -1.986797  -4.136903   5.857471   0.003287  -0.002713  -4.166097  -3.376593   0.460410   0.111011  -0.000494  -0.001309  -6.977027  -1.241930   5.121321   6.310809  -0.003984   0.000517  -6.847172   1.343892  -0.419657   1.208210  -0.000478   0.000634
